{"accessors":[{"bufferView":2,"componentType":5126,"count":65532,"max":[-0.31660500168800354,0.10871600359678268,0.50710397958755493],"min":[-0.66965597867965698,-0.12379500269889832,0.026974000036716461],"type":"VEC3"},{"bufferView":2,"byteOffset":786384,"componentType":5126,"count":65532,"max":[0.99998235702514648,0.9999624490737915,0.99888736009597778],"min":[-0.99992990493774414,-0.99997538328170776,-0.99999827146530151],"type":"VEC3"},{"bufferView":3,"componentType":5126,"count":65532,"max":[0.63921600580215454,0.63921600580215454,0.63921600580215454,1],"min":[0.63921600580215454,0.63921600580215454,0.63921600580215454,1],"type":"VEC4"},{"bufferView":1,"componentType":5126,"count":65532,"max":[0.96627199649810791,0.99675798416137695],"min":[0,0],"type":"VEC2"},{"bufferView":3,"byteOffset":1048512,"componentType":5126,"count":65532,"max":[0.99999856948852539,0.99999618530273438,0.99921703338623047,1],"min":[-0.99999898672103882,-0.99999773502349854,-0.99934470653533936,-1],"type":"VEC4"},{"bufferView":0,"componentType":5125,"count":264780,"max":[65531],"min":[0],"type":"SCALAR"},{"bufferView":2,"byteOffset":1572768,"componentType":5126,"count":12161,"max":[-0.32973799109458923,0.10251100361347198,0.50710397958755493],"min":[-0.6684030294418335,-0.12302800267934799,0.026974000036716461],"type":"VEC3"},{"bufferView":2,"byteOffset":1718700,"componentType":5126,"count":12161,"max":[0.99851208925247192,0.9999624490737915,0.99799376726150513],"min":[-0.99992990493774414,-0.99940741062164307,-0.99999690055847168],"type":"VEC3"},{"bufferView":3,"byteOffset":2097024,"componentType":5126,"count":12161,"max":[0.63921600580215454,0.63921600580215454,0.63921600580215454,1],"min":[0.63921600580215454,0.63921600580215454,0.63921600580215454,1],"type":"VEC4"},{"bufferView":1,"byteOffset":524256,"componentType":5126,"count":12161,"max":[0.96586298942565918,0.98362797498703003],"min":[0,0],"type":"VEC2"},{"bufferView":3,"byteOffset":2291600,"componentType":5126,"count":12161,"max":[0.99998378753662109,0.99991881847381592,0.99698209762573242,1],"min":[-0.99999779462814331,-0.99999773502349854,-0.94785690307617188,-1],"type":"VEC4"},{"bufferView":0,"byteOffset":1059120,"componentType":5125,"count":35220,"max":[12160],"min":[0],"type":"SCALAR"}],"asset":{"generator":"Sketchfab (OSG glTF plugin)","version":"2.0"},"bufferViews":[{"buffer":0,"byteLength":1200000,"byteOffset":0,"name":"ScalarBufferView","target":34962},{"buffer":0,"byteLength":621544,"byteOffset":1200000,"byteStride":8,"name":"Vec2BufferView","target":34962},{"buffer":0,"byteLength":1864632,"byteOffset":1821544,"byteStride":12,"name":"Vec3BufferView","target":34962},{"buffer":0,"byteLength":2486176,"byteOffset":3686176,"byteStride":16,"name":"Vec4BufferView","target":34962}],"buffers":[{"byteLength":6172352,"uri":"scene.bin"}],"images":[{"uri":"textures\/material_0_baseColor.png"},{"uri":"textures\/material_0_metallicRoughness.png"}],"materials":[{"doubleSided":true,"name":"material_0","occlusionTexture":{"index":1,"strength":1,"texCoord":0},"pbrMetallicRoughness":{"baseColorFactor":[1,1,1,1],"baseColorTexture":{"index":0,"texCoord":0},"metallicFactor":0,"roughnessFactor":1}}],"meshes":[{"primitives":[{"attributes":{"COLOR_0":2,"NORMAL":1,"POSITION":0,"TANGENT":4,"TEXCOORD_0":3},"indices":5,"material":0,"mode":4},{"attributes":{"COLOR_0":8,"NORMAL":7,"POSITION":6,"TANGENT":10,"TEXCOORD_0":9},"indices":11,"material":0,"mode":4}]}],"nodes":[{"children":[1],"name":"RootNode (gltf orientation matrix)","rotation":[-0.70710678118654746,-0,-0,0.70710678118654757]},{"children":[2],"name":"RootNode (model correction matrix)"},{"children":[3],"name":"nefertiti_HQ2.obj.cleaner.gles"},{"mesh":0,"name":""}],"samplers":[{"magFilter":9729,"minFilter":9987,"wrapS":10497,"wrapT":10497}],"scene":0,"scenes":[{"name":"OSG_Scene","nodes":[0]}],"textures":[{"sampler":0,"source":0},{"sampler":0,"source":1}]}
